<svg width="25" height="24" viewBox="0 0 25 24" fill="none" xmlns="http://www.w3.org/2000/svg">
<path d="M8.21753 13.0021C7.94139 13.0021 7.71753 13.2259 7.71753 13.5021V16.5021C7.71753 16.7782 7.94139 17.0021 8.21753 17.0021C8.49367 17.0021 8.71753 16.7782 8.71753 16.5021V16.0025H9.21489C10.0434 16.0025 10.7151 15.3308 10.7151 14.5023C10.7151 13.6737 10.0434 13.0021 9.21489 13.0021H8.21753ZM9.21489 15.0025H8.71753V14.0021H9.21489C9.49114 14.0021 9.71509 14.226 9.71509 14.5023C9.71509 14.7785 9.49114 15.0025 9.21489 15.0025ZM15.7125 13.5014C15.7128 13.2255 15.9366 13.0021 16.2125 13.0021H17.7175C17.9937 13.0021 18.2175 13.2259 18.2175 13.5021C18.2175 13.7782 17.9937 14.0021 17.7175 14.0021H16.7119L16.7106 15.0038H17.7175C17.9937 15.0038 18.2175 15.2277 18.2175 15.5038C18.2175 15.7799 17.9937 16.0038 17.7175 16.0038H16.7112L16.7125 16.5008C16.7132 16.7769 16.4899 17.0014 16.2138 17.0021C15.9376 17.0028 15.7132 16.7795 15.7125 16.5033L15.71 15.5051L15.71 15.5032L15.7125 13.5014ZM12.2148 13.0021C11.9387 13.0021 11.7148 13.2259 11.7148 13.5021V16.5021C11.7148 16.7782 11.9387 17.0021 12.2148 17.0021H12.7124C13.817 17.0021 14.7124 16.1067 14.7124 15.0021C14.7124 13.8975 13.817 13.0021 12.7124 13.0021H12.2148ZM12.7148 16.0021V14.0021C13.266 14.0034 13.7124 14.4506 13.7124 15.0021C13.7124 15.5535 13.266 16.0008 12.7148 16.0021ZM20.7148 20V18.8358C21.3061 18.5549 21.7148 17.9523 21.7148 17.2542V12.75C21.7148 12.0519 21.3061 11.4493 20.7148 11.1684V9.828C20.7148 9.298 20.5038 8.789 20.1288 8.414L14.2998 2.586C14.2849 2.57105 14.268 2.55808 14.2511 2.5452C14.2387 2.53567 14.2263 2.5262 14.2148 2.516C14.1438 2.452 14.0738 2.389 13.9958 2.336C13.9706 2.31894 13.9429 2.30548 13.9154 2.29207C13.8993 2.28426 13.8833 2.27647 13.8678 2.268C13.8511 2.25859 13.8345 2.24897 13.8178 2.23933C13.7636 2.20797 13.7092 2.17648 13.6518 2.152C13.4548 2.07 13.2428 2.029 13.0278 2.014C13.0081 2.01274 12.9886 2.01008 12.969 2.00741C12.9419 2.00371 12.9147 2 12.8868 2H6.71484C5.61084 2 4.71484 2.896 4.71484 4V11.1684C4.12361 11.4493 3.71484 12.0519 3.71484 12.75V17.2542C3.71484 17.9523 4.12361 18.5549 4.71484 18.8358V20C4.71484 21.104 5.61084 22 6.71484 22H18.7148C19.8188 22 20.7148 21.104 20.7148 20ZM18.7148 20.5H6.71484C6.43884 20.5 6.21484 20.275 6.21484 20V19.0042H19.2148V20C19.2148 20.275 18.9908 20.5 18.7148 20.5ZM19.2148 10V11H6.21484V4C6.21484 3.725 6.43884 3.5 6.71484 3.5H12.7148V8C12.7148 9.104 13.6108 10 14.7148 10H19.2148ZM18.0928 8.5H14.7148C14.4388 8.5 14.2148 8.275 14.2148 8V4.621L18.0928 8.5ZM5.46484 12.5H19.9648C20.1029 12.5 20.2148 12.6119 20.2148 12.75V17.2542C20.2148 17.3923 20.1029 17.5042 19.9648 17.5042H5.46484C5.32677 17.5042 5.21484 17.3923 5.21484 17.2542V12.75C5.21484 12.6119 5.32677 12.5 5.46484 12.5Z" fill="#373737"/>
</svg>
