<svg width="25" height="24" viewBox="0 0 25 24" fill="none" xmlns="http://www.w3.org/2000/svg">
<path d="M12.7148 3C17.6854 3 21.7148 7.02944 21.7148 12C21.7148 16.9706 17.6854 21 12.7148 21C11.0052 21 9.36429 20.5218 7.94565 19.6338C7.36778 19.2721 6.83254 18.8457 6.35051 18.3636C5.86774 17.8808 5.44086 17.3446 5.07885 16.7657C4.19224 15.3478 3.71484 13.7082 3.71484 12C3.71484 11.7258 3.72712 11.4531 3.75154 11.1823C3.78874 10.7697 4.15332 10.4655 4.56586 10.5026C4.9784 10.5398 5.28268 10.9044 5.24548 11.317C5.2251 11.543 5.21484 11.7708 5.21484 12C5.21484 13.4249 5.61211 14.7893 6.35067 15.9704C6.65248 16.453 7.00852 16.9002 7.41123 17.303C7.81333 17.7051 8.25975 18.0608 8.74152 18.3623C9.92328 19.1021 11.2888 19.5 12.7148 19.5C16.857 19.5 20.2148 16.1421 20.2148 12C20.2148 7.85786 16.857 4.5 12.7148 4.5C10.3176 4.5 8.11437 5.63281 6.71259 7.50196L9.46903 7.50209C9.88324 7.50209 10.219 7.83788 10.219 8.25209C10.219 8.63179 9.93688 8.94558 9.5708 8.99525L9.46903 9.00209H4.96484C4.58515 9.00209 4.27135 8.71994 4.22169 8.35386L4.21484 8.25209V3.75209C4.21484 3.33788 4.55063 3.00209 4.96484 3.00209C5.34454 3.00209 5.65833 3.28425 5.708 3.65032L5.71484 3.75209L5.71385 6.34348C7.40071 4.25603 9.95112 3 12.7148 3ZM11.9648 7C12.3443 7 12.6583 7.28233 12.708 7.64827L12.7148 7.75V12H14.9648C15.3788 12 15.7148 12.336 15.7148 12.75C15.7148 13.1295 15.4325 13.4435 15.0666 13.4931L14.9648 13.5H11.9648C11.5853 13.5 11.2714 13.2177 11.2217 12.8517L11.2148 12.75V7.75C11.2148 7.336 11.5508 7 11.9648 7Z" fill="#373737"/>
</svg>
