<svg width="21" height="20" viewBox="0 0 21 20" fill="none" xmlns="http://www.w3.org/2000/svg">
<path d="M18.2978 16L20.3008 16L20.3008 2C20.3008 0.9 19.3994 -7.78063e-08 18.2978 -1.72903e-07L4.27678 -1.38322e-06L4.27678 2L18.2978 2L18.2978 16ZM2.27377 20L14.2918 20C15.3934 20 16.2948 19.1 16.2948 18L16.2948 6C16.2948 4.9 15.3934 4 14.2918 4L2.27378 4C1.17213 4 0.270775 4.9 0.270775 6L0.270774 18C0.270774 19.1 1.17212 20 2.27377 20ZM3.27528 11L13.2903 11L13.2903 13L3.27528 13L3.27528 11ZM7.28128 7L13.2903 7L13.2903 9L7.28128 9L7.28128 7ZM3.27528 15L13.2903 15L13.2903 17L3.27528 17L3.27528 15Z" fill="#18A0FB"/>
</svg>
