<svg width="10" height="10" viewBox="0 0 10 10" fill="none" xmlns="http://www.w3.org/2000/svg">
<path d="M3.75 0.5C4.61195 0.5 5.4386 0.84241 6.0481 1.4519C6.65759 2.0614 7 2.88805 7 3.75C7 4.555 6.705 5.295 6.22 5.865L6.355 6H6.75L9.25 8.5L8.5 9.25L6 6.75V6.355L5.865 6.22C5.295 6.705 4.555 7 3.75 7C2.88805 7 2.0614 6.65759 1.4519 6.0481C0.84241 5.4386 0.5 4.61195 0.5 3.75C0.5 2.88805 0.84241 2.0614 1.4519 1.4519C2.0614 0.84241 2.88805 0.5 3.75 0.5ZM3.75 1.5C2.5 1.5 1.5 2.5 1.5 3.75C1.5 5 2.5 6 3.75 6C5 6 6 5 6 3.75C6 2.5 5 1.5 3.75 1.5Z" fill="#E2E2E2"/>
</svg>
