<svg width="19" height="18" viewBox="0 0 19 18" fill="none" xmlns="http://www.w3.org/2000/svg">
<path d="M15.4648 0C17.2598 0 18.7148 1.45507 18.7148 3.25V14.75C18.7148 16.5449 17.2598 18 15.4648 18H3.96484C2.16992 18 0.714844 16.5449 0.714844 14.75V3.25C0.714844 1.45507 2.16992 0 3.96484 0H15.4648ZM15.4648 1.5H3.96484C2.99835 1.5 2.21484 2.2835 2.21484 3.25V14.75C2.21484 15.7165 2.99835 16.5 3.96484 16.5H15.4648C16.4313 16.5 17.2148 15.7165 17.2148 14.75V3.25C17.2148 2.2835 16.4313 1.5 15.4648 1.5ZM8.71484 4.25C10.7859 4.25 12.4648 5.92893 12.4648 8C12.4648 8.7642 12.2363 9.47502 11.8437 10.0678L14.2452 12.4697C14.5381 12.7626 14.5381 13.2374 14.2452 13.5303C13.9789 13.7966 13.5622 13.8208 13.2686 13.6029L13.1845 13.5303L10.7826 11.1289C10.1899 11.5214 9.47905 11.75 8.71484 11.75C6.64378 11.75 4.96484 10.0711 4.96484 8C4.96484 5.92893 6.64378 4.25 8.71484 4.25ZM8.71484 5.75C7.4722 5.75 6.46484 6.75736 6.46484 8C6.46484 9.24264 7.4722 10.25 8.71484 10.25C9.95748 10.25 10.9648 9.24264 10.9648 8C10.9648 6.75736 9.95748 5.75 8.71484 5.75Z" fill="#000000"/>
</svg>
