<svg width="24" height="24" viewBox="0 0 24 24" fill="none" xmlns="http://www.w3.org/2000/svg">
<path d="M5.86674 5H7.375C7.49631 4.15193 8.22567 3.5 9.1073 3.5H17.1074C18.9023 3.5 20.3574 4.95507 20.3574 6.75V14.75C20.3574 15.6316 19.7055 16.361 18.8574 16.4823V17.9905C20.5355 17.8629 21.8574 16.4608 21.8574 14.75V6.75C21.8574 4.12665 19.7308 2 17.1074 2H9.1073C7.39647 2 5.9944 3.32189 5.86674 5ZM1.85742 9.25C1.85742 7.45507 3.31251 6 5.10745 6H14.6075C16.4025 6 17.8576 7.45507 17.8576 9.25V18.75C17.8576 20.5449 16.4025 22 14.6075 22H5.10745C3.31251 22 1.85742 20.5449 1.85742 18.75V9.25ZM5.10745 7.5C4.14095 7.5 3.35744 8.2835 3.35744 9.25V16.5H9.10742C10.3501 16.5 11.3574 17.5074 11.3574 18.75V20.5H14.6075C15.5741 20.5 16.3576 19.7165 16.3576 18.75V9.25C16.3576 8.2835 15.5741 7.5 14.6075 7.5H5.10745ZM9.85742 20.5V18.75C9.85742 18.3358 9.52164 18 9.10742 18H3.35744V18.75C3.35744 19.7165 4.14095 20.5 5.10745 20.5H9.85742Z" fill="#373737"/>
</svg>
