<svg width="23" height="24" viewBox="0 0 23 24" fill="none" xmlns="http://www.w3.org/2000/svg">
<path d="M2 6.24971C2 4.45495 3.45495 3 5.24971 3H16.7487C18.5435 3 19.9984 4.45495 19.9984 6.24971V11.0115C19.492 10.9678 18.9774 11.0412 18.4985 11.2317V9.99938H14.4989L14.4989 13.999H15.3539L12.999 16.3539V15.4989H8.99938V19.4985H10.5402C10.5333 19.5241 10.5266 19.5497 10.5202 19.5754L10.1644 20.9984H5.24971C3.45495 20.9984 2 19.5435 2 17.7487V6.24971ZM5.24971 4.49987C4.2833 4.49987 3.49987 5.2833 3.49987 6.24971V8.49952H7.49952V4.49987H5.24971ZM3.49987 9.99938V13.999H7.49952L7.49952 9.99938H3.49987ZM8.99938 9.99938L8.99938 13.999H12.999L12.999 9.99938H8.99938ZM14.4989 8.49952H18.4985V6.24971C18.4985 5.2833 17.7151 4.49987 16.7487 4.49987H14.4989V8.49952ZM12.999 4.49987H8.99938V8.49952H12.999V4.49987ZM3.49987 15.4989V17.7487C3.49987 18.7151 4.2833 19.4985 5.24971 19.4985H7.49952V15.4989H3.49987ZM18.7649 12.2051C18.6737 12.2467 18.5847 12.2947 18.4985 12.3489C18.3565 12.4383 18.2221 12.5449 18.0984 12.6686L12.1965 18.5705C11.9317 18.8353 11.7261 19.1517 11.5917 19.4985C11.5514 19.6024 11.5174 19.7091 11.4902 19.8179L11.0327 21.6484C10.8336 22.4445 11.5547 23.1656 12.3508 22.9666L14.1813 22.5089C14.6534 22.3909 15.0846 22.1468 15.4287 21.8027L21.3306 15.9008C22.2231 15.0082 22.2231 13.5611 21.3306 12.6686C20.6789 12.0169 19.7316 11.8411 18.9203 12.141C18.9072 12.1459 18.8941 12.1508 18.8811 12.1559C18.842 12.1712 18.8033 12.1876 18.7649 12.2051Z" fill="#373737"/>
</svg>
